# File created by Blade
# Date/Time:  Wed Jan 28 15:39:58 2015
#---------------------------------------------------------
:version 1.10
:name HOM
:units
  mass 1.0
  length 1.000000
  angle deg
:documentation
     Acclaim Skeleton File
:root
   axis xyz
   order TX TY TZ RX RY RZ
   position 0.000000 0.000000 0.000000
   orientation 0 0 0
:bonedata
   begin
      id 1
      name Spine_dum
      direction 0.000000 1.000000 0.000000
      length 6.864287
      axis 0.0 0.0 0.0 xyz
   end
   begin
      id 2
      name LeftUpLeg_dum
      direction 1.000000 0.000000 0.000000
      length 4.117376
      axis 0.0 0.0 0.0 xyz
   end
   begin
      id 3
      name RightUpLeg_dum
      direction -1.000000 0.000000 0.000000
      length 4.117376
      axis 0.0 0.0 0.0 xyz
   end
   begin
      id 4
      name Spine
      direction 0.000000 1.000000 0.000000
      length 0.000000
      axis 0.0 0.0 0.0 xyz
      dof rx ry rz
   end
   begin
      id 5
      name Spine_dum1
      direction 0.000000 1.000000 0.000000
      length 15.393827
      axis 0.0 0.0 0.0 xyz
   end
   begin
      id 6
      name Spine_dum2
      direction 0.000000 1.000000 0.000000
      length 9.314826
      axis 0.0 0.0 0.0 xyz
   end
   begin
      id 7
      name Spine_dum3
      direction 0.000000 1.000000 0.000000
      length 9.314826
      axis 0.0 0.0 0.0 xyz
   end
   begin
      id 8
      name Head
      direction 0.000000 1.000000 0.000000
      length 4.527550
      axis 0.0 0.0 0.0 xyz
      dof rx ry rz
   end
   begin
      id 9
      name LeftShoulder
      direction 1.000000 0.000000 0.000000
      length 8.275398
      axis 0.0 0.0 -90.0 xyz
      dof rx ry rz
   end
   begin
      id 10
      name LeftArm
      direction 1.000000 0.000000 0.000000
      length 12.002200
      axis 0.0 0.0 -90.0 xyz
      dof rx ry rz
   end
   begin
      id 11
      name LeftForeArm
      direction 1.000000 0.000000 0.000000
      length 10.144633
      axis 0.0 0.0 -90.0 xyz
      dof ry rz rx
   end
   begin
      id 12
      name LeftHand
      direction 0.000000 0.000000 0.000000
      length 0.000000
      axis 0.0 0.0 -90.0 xyz
      dof rx ry rz
   end
   begin
      id 13
      name LeftHand_dum1
      direction 0.000000 0.000000 0.000000
      length 0.000000
      axis 0.0 0.0 -90.0 xyz
   end
   begin
      id 14
      name LeftHand_dum2
      direction 1.000000 0.000000 0.000000
      length 3.937000
      axis 0.0 0.0 -90.0 xyz
   end
   begin
      id 15
      name LeftHandThumb1
      direction 0.000000 0.000000 1.000000
      length 3.937000
      axis 0.0 0.0 -90.0 xyz
      dof rx rz ry
   end
   begin
      id 16
      name RightShoulder
      direction -1.000000 0.000000 0.000000
      length 8.275398
      axis 0.0 0.0 90.0 xyz
      dof rx ry rz
   end
   begin
      id 17
      name RightArm
      direction -1.000000 0.000000 0.000000
      length 12.002200
      axis 0.0 0.0 90.0 xyz
      dof rx ry rz
   end
   begin
      id 18
      name RightForeArm
      direction -1.000000 0.000000 0.000000
      length 10.144633
      axis 0.0 0.0 90.0 xyz
      dof ry rz rx
   end
   begin
      id 19
      name RightHand
      direction 0.000000 0.000000 0.000000
      length 0.000000
      axis 0.0 0.0 90.0 xyz
      dof rx ry rz
   end
   begin
      id 20
      name RightHand_dum1
      direction 0.000000 0.000000 0.000000
      length 0.000000
      axis 0.0 0.0 90.0 xyz
   end
   begin
      id 21
      name RightHand_dum2
      direction -1.000000 0.000000 0.000000
      length 3.937000
      axis 0.0 0.0 90.0 xyz
   end
   begin
      id 22
      name RightHandThumb1
      direction 0.000000 0.000000 1.000000
      length 3.937000
      axis 0.0 0.0 90.0 xyz
      dof rx rz ry
   end
   begin
      id 23
      name LeftUpLeg
      direction 0.000000 -1.000000 0.000000
      length 19.394322
      axis 0.0 0.0 0.0 xyz
      dof rx ry rz
   end
   begin
      id 24
      name LeftLeg
      direction 0.000000 -1.000000 0.000000
      length 17.609563
      axis 0.0 0.0 0.0 xyz
      dof rx ry rz
   end
   begin
      id 25
      name LeftFoot
      direction 0.000000 -0.258819 0.965926
      length 6.085393
      axis 15.0 0.0 0.0 xyz
      dof rx ry rz
   end
   begin
      id 26
      name LeftToeBase
      direction 0.000000 0.000000 1.000000
      length 2.952750
      axis 0.0 0.0 0.0 xyz
      dof rx ry rz
   end
   begin
      id 27
      name RightUpLeg
      direction 0.000000 -1.000000 0.000000
      length 19.394322
      axis 0.0 0.0 0.0 xyz
      dof rx ry rz
   end
   begin
      id 28
      name RightLeg
      direction 0.000000 -1.000000 0.000000
      length 17.609563
      axis 0.0 0.0 0.0 xyz
      dof rx ry rz
   end
   begin
      id 29
      name RightFoot
      direction 0.000000 -0.258819 0.965926
      length 6.085393
      axis 15.0 0.0 0.0 xyz
      dof rx ry rz
   end
   begin
      id 30
      name RightToeBase
      direction 0.000000 0.000000 1.000000
      length 2.952750
      axis 0.0 0.0 0.0 xyz
      dof rx ry rz
   end
:hierarchy
   begin
      root Spine_dum LeftUpLeg_dum RightUpLeg_dum
      Spine_dum Spine
      LeftUpLeg_dum LeftUpLeg
      RightUpLeg_dum RightUpLeg
      Spine Spine_dum1 Spine_dum2 Spine_dum3
      Spine_dum1 Head
      Spine_dum2 LeftShoulder
      Spine_dum3 RightShoulder
      LeftShoulder LeftArm
      LeftArm LeftForeArm
      LeftForeArm LeftHand
      LeftHand LeftHand_dum1 LeftHand_dum2
      LeftHand_dum1 LeftHandThumb1
      RightShoulder RightArm
      RightArm RightForeArm
      RightForeArm RightHand
      RightHand RightHand_dum1 RightHand_dum2
      RightHand_dum1 RightHandThumb1
      LeftUpLeg LeftLeg
      LeftLeg LeftFoot
      LeftFoot LeftToeBase
      RightUpLeg RightLeg
      RightLeg RightFoot
      RightFoot RightToeBase
   end

# File created by Blade
# Date/Time:  Wed Jan 28 15:40:07 2015
# Frame Rate: 120.000 fps
#------------------------------------------------------
:FULLY-SPECIFIED
:DEGREES
116
root 3.030397 39.454269 -9.542028 -0.869448 -14.996886 6.348911
Spine 15.902837 -1.771700 -12.596684
Head 8.070373 -47.961593 20.684198
LeftShoulder -13.211646 20.610204 24.158308
LeftArm 21.545327 -4.030035 -50.357664
LeftForeArm 8.484811 -0.000000 34.620654
LeftHand 8.045553 -0.000000 -8.602460
LeftHandThumb1 -26.253704 0.000000 33.147579
RightShoulder -10.306350 5.754780 -20.318635
RightArm 1.949774 37.916364 56.816194
RightForeArm 7.034060 -0.000000 41.955837
RightHand -1.870315 -0.000000 -28.985423
RightHandThumb1 -24.326973 -0.000000 -32.862282
LeftUpLeg 1.963498 16.063552 -5.982599
LeftLeg 2.859168 -0.000000 -0.000000
LeftFoot -10.205723 11.800649 -15.310467
LeftToeBase 11.321419 -0.000000 -0.000000
RightUpLeg -13.453837 -8.494780 -9.840481
RightLeg 24.927844 -0.000000 -0.000000
RightFoot -23.715435 -3.083104 33.530712
RightToeBase 6.930780 -0.000000 -0.000000
117
root 3.058125 39.443700 -9.553379 -0.976001 -15.489771 6.466852
Spine 15.975511 -1.667047 -12.708845
Head 8.587267 -47.733311 20.193123
LeftShoulder -13.210920 20.711865 24.091305
LeftArm 21.871255 -3.584282 -50.167393
LeftForeArm 8.425157 -0.000000 34.795646
LeftHand 7.910063 -0.000000 -8.132258
LeftHandThumb1 -26.253704 0.000000 33.147579
RightShoulder -10.106340 5.933526 -20.202330
RightArm 1.727774 37.206090 56.497743
RightForeArm 7.442493 -0.000000 42.493835
RightHand -2.077174 -0.000000 -29.521350
RightHandThumb1 -24.326973 -0.000000 -32.862282
LeftUpLeg 2.174204 16.407204 -6.102930
LeftLeg 2.540234 -0.000000 -0.000000
LeftFoot -10.137445 11.889987 -15.319787
LeftToeBase 11.315777 -0.000000 -0.000000
RightUpLeg -13.831471 -9.351613 -9.881211
RightLeg 25.528539 -0.000000 -0.000000
RightFoot -24.511259 -3.515632 33.739354
RightToeBase 8.601615 -0.000000 -0.000000
118
root 3.082582 39.435436 -9.563235 -1.117007 -15.944443 6.522895
Spine 16.110704 -1.606201 -12.726414
Head 9.064439 -47.475871 19.694037
LeftShoulder -13.189221 20.793530 24.098185
LeftArm 22.231776 -3.431276 -50.354794
LeftForeArm 8.616410 -0.000000 34.863736
LeftHand 8.018725 -0.000000 -7.884522
LeftHandThumb1 -26.253704 0.000000 33.147579
RightShoulder -10.015392 5.809793 -20.155773
RightArm 2.167044 37.037855 56.808143
RightForeArm 7.394572 -0.000000 42.847496
RightHand -2.085171 -0.000000 -29.820603
RightHandThumb1 -24.326973 -0.000000 -32.862282
LeftUpLeg 2.435775 16.671151 -6.155668
LeftLeg 2.223528 -0.000000 -0.000000
LeftFoot -10.101125 12.069352 -15.324976
LeftToeBase 11.289707 -0.000000 -0.000000
RightUpLeg -14.118353 -10.310719 -9.865546
RightLeg 26.081647 -0.000000 -0.000000
RightFoot -25.110157 -4.015582 33.771014
RightToeBase 7.993599 -0.000000 -0.000000
119
root 3.114616 39.430272 -9.578421 -1.185832 -16.367639 6.609464
Spine 16.169145 -1.608514 -12.743283
Head 9.490782 -47.153106 19.197162
LeftShoulder -13.186340 20.881458 24.063345
LeftArm 22.570062 -3.273234 -50.549820
LeftForeArm 8.829826 -0.000000 35.009086
LeftHand 8.017110 -0.000000 -7.628489
LeftHandThumb1 -26.253704 0.000000 33.147579
RightShoulder -9.904274 5.777126 -20.140727
RightArm 2.486052 36.842710 57.036801
RightForeArm 7.425709 0.000000 43.213471
RightHand -2.060605 -0.000000 -30.034861
RightHandThumb1 -24.326973 -0.000000 -32.862282
LeftUpLeg 2.585634 16.829432 -6.287562
LeftLeg 1.925801 -0.000000 -0.000000
LeftFoot -10.048360 12.368207 -15.302027
LeftToeBase 11.291435 -0.000000 -0.000000
RightUpLeg -14.473435 -11.246950 -9.876024
RightLeg 26.596959 -0.000000 -0.000000
RightFoot -25.589091 -4.501042 33.844021
RightToeBase 7.804321 -0.000000 -0.000000
120
root 3.140824 39.426560 -9.588440 -1.273306 -16.783673 6.661835
Spine 16.251276 -1.628777 -12.704954
Head 9.842663 -46.884473 18.732663
LeftShoulder -13.171650 20.784541 24.028525
LeftArm 22.691605 -3.035905 -50.755492
LeftForeArm 9.014381 -0.000000 35.292747
LeftHand 8.016919 -0.000000 -7.372150
LeftHandThumb1 -26.253704 0.000000 33.147579
RightShoulder -9.799850 6.034559 -20.213045
RightArm 2.500447 36.595681 57.120140
RightForeArm 7.652118 -0.000000 43.526288
RightHand -1.753145 -0.000000 -29.982516
RightHandThumb1 -24.326973 -0.000000 -32.862282
LeftUpLeg 2.770395 16.978509 -6.362367
LeftLeg 1.640626 -0.000000 -0.000000
LeftFoot -10.012054 12.634149 -15.326073
LeftToeBase 11.304025 -0.000000 -0.000000
RightUpLeg -14.763164 -12.221492 -9.868705
RightLeg 27.074807 -0.000000 -0.000000
RightFoot -25.988014 -4.921312 33.889300
RightToeBase 7.876858 -0.000000 -0.000000
